<svg xmlns="http://www.w3.org/2000/svg" viewBox="0 0 200 200" fill="none">
  <defs>
    <filter id="orbit-glow" x="-20%" y="-20%" width="140%" height="140%">
      <feGaussianBlur stdDeviation="3" result="blur" />
      <feComposite in="SourceGraphic" in2="blur" operator="over" />
    </filter>
    <linearGradient id="orbit-stroke" x1="0%" y1="0%" x2="100%" y2="100%">
      <stop offset="0%" stop-color="#E5E6EA" stop-opacity="0.9" />
      <stop offset="50%" stop-color="#CFCFD4" stop-opacity="0.4" />
      <stop offset="85%" stop-color="#E5E6EA" stop-opacity="0.95" />
      <stop offset="100%" stop-color="#FFFFFF" />
    </linearGradient>
    <linearGradient id="letter-grad" x1="20%" y1="0%" x2="80%" y2="100%">
      <stop offset="0%" stop-color="#FFFFFF" />
      <stop offset="50%" stop-color="#E5E6EA" />
      <stop offset="100%" stop-color="#CFCFD4" />
    </linearGradient>
  </defs>

  <path d="M 68 76 C 68 64, 76 56, 100 56 C 124 56, 132 64, 132 76 L 132 124 C 132 136, 124 144, 100 144 C 76 144, 68 136, 68 124 Z M 86 82 L 86 118 C 86 126, 90 130, 100 130 C 110 130, 114 126, 114 118 L 114 82 C 114 74, 110 70, 100 70 C 90 70, 86 74, 86 82 Z" fill="url(#letter-grad)" />

  <ellipse cx="100" cy="100" rx="86" ry="46" transform="rotate(-24 100 100)" stroke="url(#orbit-stroke)" stroke-width="2.5" fill="none" />

  <circle cx="152" cy="56" r="3.5" fill="#FFFFFF" filter="url(#orbit-glow)" />
  <circle cx="152" cy="56" r="1.8" fill="#0EA5FF" />
</svg>